<?xml version="1.0" encoding="UTF-8" standalone="no"?>
<svg
   viewBox="0 0 128 128"
   version="1.1"
   id="svg6"
   sodipodi:docname="Rat.svg"
   width="128"
   height="128"
   inkscape:version="1.3.2 (091e20ef0f, 2023-11-25, custom)"
   xml:space="preserve"
   xmlns:inkscape="http://www.inkscape.org/namespaces/inkscape"
   xmlns:sodipodi="http://sodipodi.sourceforge.net/DTD/sodipodi-0.dtd"
   xmlns:xlink="http://www.w3.org/1999/xlink"
   xmlns="http://www.w3.org/2000/svg"
   xmlns:svg="http://www.w3.org/2000/svg"><defs
     id="defs6"><clipPath
       clipPathUnits="userSpaceOnUse"
       id="clipPath6"><path
         id="path6"
         d="m 73.5,33.097226 c -0.500572,0.006 -1,0.03474 -1.5,0.09028 -2.670219,0.295111 -1.642667,1.845334 0,2.222222 2.16533,0.501331 5.111001,2.505221 6.152779,3.319443 0.999107,0.778666 -8.225618,-1.982663 -14.451389,0.388889 -3.100444,1.180444 -1.826666,1.998222 0.111111,1.777777 1.468032,-0.169102 2.911495,-0.01351 4.458333,0.472224 -6.805824,1.960089 -12.438784,5.113718 -17,9.111112 -0.745728,-1.229778 -1.615876,-2.325458 -2.569444,-3.26389 -1.596444,2.936885 -7.430169,1.006826 -7.298613,-3.729166 -1.646219,-0.188445 -8.337002,-1.763442 -10.847221,2.069443 -3.830762,5.847801 2.768783,8.222027 4.020833,15.506944 -0.180661,0.104498 -0.361686,0.20864 -0.541667,0.319431 -3.721442,-2.785294 -7.947402,-3.307189 -12.333333,-3.312487 -2.591997,0 -2.440942,1.706557 -0.368056,1.930557 3.825774,0.408888 6.976612,1.447 7.381945,2.375 0.270222,0.622223 -2.491336,-0.152782 -5.083333,-0.152782 -4.14933,0 -3.708331,1.06128 -0.597223,1.854166 2.388863,0.610275 3.887953,1.334129 5.020834,2.013891 C 22.695844,71.051232 17.889235,76.99989 14.222222,78.222226 3.5555662,81.777778 0,90.336011 0,96.000004 c 0,6.535106 7.061344,6.133336 17.777778,7.111106 6.776882,0.62223 19.889788,0.44445 32,3.55556 0.482666,0.12402 0.889162,0.20551 1.256946,0.27083 8.153166,2.66943 18.278776,3.28473 27.187498,3.28473 18.655982,0 39.111108,-8.01069 39.111108,-26.666671 0,-25.280213 -9.33999,-39.354268 -23.312498,-43.284722 -0.0028,-7.82e-4 -0.0043,-0.006 -0.0071,-0.0071 C 88.513728,38.210393 81.00842,33.007423 73.499833,33.097059 Z"
         style="stroke-width:3.55556" /></clipPath></defs><sodipodi:namedview
     id="namedview6"
     pagecolor="#ffffff"
     bordercolor="#000000"
     borderopacity="0.25"
     inkscape:showpageshadow="2"
     inkscape:pageopacity="0.0"
     inkscape:pagecheckerboard="0"
     inkscape:deskcolor="#d1d1d1"
     inkscape:zoom="6.28125"
     inkscape:cx="63.920398"
     inkscape:cy="64"
     inkscape:window-width="1920"
     inkscape:window-height="1008"
     inkscape:window-x="0"
     inkscape:window-y="0"
     inkscape:window-maximized="1"
     inkscape:current-layer="svg6" /><path
     fill="#ea596e"
     d="M 106.66667,128 H 21.333333 c -1.962666,0 -3.555555,-1.58933 -3.555555,-3.55555 0,-1.96622 1.592889,-3.55556 3.555555,-3.55556 h 85.333337 c 9.03822,0 14.22222,-4.86044 14.22222,-13.33333 0,-5.46489 -5.84178,-11.555556 -14.22222,-11.555556 H 81.777778 c -1.966222,0 -3.555556,-1.589334 -3.555556,-3.555556 0,-1.966222 1.589334,-3.555556 3.555556,-3.555556 H 106.66667 C 119.42756,88.888892 128,98.542226 128,107.55556 128,119.97512 119.62667,128 106.66667,128 Z"
     id="path1"
     style="stroke-width:3.55556" /><image
     width="117.33333"
     height="77.126312"
     preserveAspectRatio="none"
     xlink:href="$$IMG$$"
     id="image1"
     x="0"
     y="33.095917"
     clip-path="url(#clipPath6)" /><path
     fill="#e6aaaa"
     d="m 48.472889,57.38667 c 0.298667,4.547556 -1.710222,9.493334 -4.963556,10.364445 -3.249777,0.874666 -4.540444,-2.588445 -5.717333,-6.972445 -1.176889,-4.384 -3.377778,-9.550222 -0.128,-10.424889 3.253333,-0.874666 10.421333,1.127111 10.808889,7.032889 z"
     id="path5"
     style="stroke-width:3.55556" /><circle
     fill="#292f33"
     cx="28.444445"
     cy="81.777786"
     id="circle5"
     r="3.5555556"
     style="stroke-width:3.55556" /></svg>
