 
 <svg xmlns="http://www.w3.org/2000/svg" viewBox="0 0 100 100" preserveAspectRatio="xMidYMid" style="shape-rendering: auto; display: block; background: rgb(255, 255, 255);" width="200" height="200"><g data-idx="1" style="fill: rgb(0, 0, 0); stroke: none; transform: none; opacity: 1;">
		 <g transform="matrix(1,0,0,1,0,0)" data-idx="2" style="fill: rgb(0, 0, 0); stroke: none; opacity: 1;">
			 <rect fill="#d20962" height="12" width="6" ry="6" rx="3" y="24" x="47" data-idx="3" opacity="0.233" style="stroke: none; transform: none;">
			 
		 </rect>
		 </g><g transform="matrix(0.8660253882408142,0.5,-0.5,0.8660253882408142,31.69873046875,-18.30126953125)" data-idx="5" style="fill: rgb(0, 0, 0); stroke: none; opacity: 1;">
		 <rect fill="#f47721" height="12" width="6" ry="6" rx="3" y="24" x="47" data-idx="6" opacity="0.317" style="stroke: none; transform: none;">
		 
	 </rect>
	 </g><g transform="matrix(0.5,0.8660253882408142,-0.8660253882408142,0.5,68.30126953125,-18.30126953125)" data-idx="8" style="fill: rgb(0, 0, 0); stroke: none; opacity: 1;">
		 <rect fill="#7ac143" height="12" width="6" ry="6" rx="3" y="24" x="47" data-idx="9" opacity="0.4" style="stroke: none; transform: none;">
		 
	 </rect>
	 </g><g transform="matrix(6.123234262925839e-17,1,-1,6.123234262925839e-17,100,0)" data-idx="11" style="fill: rgb(0, 0, 0); stroke: none; opacity: 1;">
		 <rect fill="#00a78e" height="12" width="6" ry="6" rx="3" y="24" x="47" data-idx="12" opacity="0.483" style="stroke: none; transform: none;">
		 
	 </rect>
	 </g><g transform="matrix(-0.5,0.8660253882408142,-0.8660253882408142,-0.5,118.30126953125,31.69873046875)" data-idx="14" style="fill: rgb(0, 0, 0); stroke: none; opacity: 1;">
		 <rect fill="#00bce4" height="12" width="6" ry="6" rx="3" y="24" x="47" data-idx="15" opacity="0.567" style="stroke: none; transform: none;">
		 
	 </rect>
	 </g><g transform="matrix(-0.8660253882408142,0.5,-0.5,-0.8660253882408142,118.30126953125,68.30126953125)" data-idx="17" style="fill: rgb(0, 0, 0); stroke: none; opacity: 1;">
		 <rect fill="#7d3f98" height="12" width="6" ry="6" rx="3" y="24" x="47" data-idx="18" opacity="0.65" style="stroke: none; transform: none;">
		 
	 </rect>
	 </g><g transform="matrix(-1,1.2246468525851679e-16,-1.2246468525851679e-16,-1,100,100)" data-idx="20" style="fill: rgb(0, 0, 0); stroke: none; opacity: 1;">
		 <rect fill="#d20962" height="12" width="6" ry="6" rx="3" y="24" x="47" data-idx="21" opacity="0.733" style="stroke: none; transform: none;">
		 
	 </rect>
	 </g><g transform="matrix(-0.8660253882408142,-0.5,0.5,-0.8660253882408142,68.30126953125,118.30126953125)" data-idx="23" style="fill: rgb(0, 0, 0); stroke: none; opacity: 1;">
		 <rect fill="#f47721" height="12" width="6" ry="6" rx="3" y="24" x="47" data-idx="24" opacity="0.817" style="stroke: none; transform: none;">
		 
	 </rect>
	 </g><g transform="matrix(-0.5,-0.8660253882408142,0.8660253882408142,-0.5,31.69873046875,118.30126953125)" data-idx="26" style="fill: rgb(0, 0, 0); stroke: none; opacity: 1;">
		 <rect fill="#7ac143" height="12" width="6" ry="6" rx="3" y="24" x="47" data-idx="27" opacity="0.9" style="stroke: none; transform: none;">
		 
	 </rect>
	 </g><g transform="matrix(-1.8369701465288538e-16,-1,1,-1.8369701465288538e-16,7.105427357601002e-15,100)" data-idx="29" style="fill: rgb(0, 0, 0); stroke: none; opacity: 1;">
		 <rect fill="#00a78e" height="12" width="6" ry="6" rx="3" y="24" x="47" data-idx="30" opacity="0.983" style="stroke: none; transform: none;">
		 
	 </rect>
	 </g><g transform="matrix(0.5,-0.8660253882408142,0.8660253882408142,0.5,-18.30126953125,68.30126953125)" data-idx="32" style="fill: rgb(0, 0, 0); stroke: none; opacity: 1;">
		 <rect fill="#00bce4" height="12" width="6" ry="6" rx="3" y="24" x="47" data-idx="33" opacity="0.067" style="stroke: none; transform: none;">
		 
	 </rect>
	 </g><g transform="matrix(0.8660253882408142,-0.5,0.5,0.8660253882408142,-18.30126953125,31.69873046875)" data-idx="35" style="fill: rgb(0, 0, 0); stroke: none; opacity: 1;">
		 <rect fill="#7d3f98" height="12" width="6" ry="6" rx="3" y="24" x="47" data-idx="36" opacity="0.15" style="stroke: none; transform: none;">
		 
	 </rect>
	 </g><g data-idx="38" style="fill: rgb(0, 0, 0); stroke: none; transform: none; opacity: 1;"></g></g>
	
 <script>
	 const rects = document.getElementsByTagName("rect");
	 
	 function anim() {
		for (rect of rects) {
			let x = (+rect.getAttribute("opacity")) - 0.018;
			
			if (x &lt; 0.0) {
				x = 1.0;
			}
			
			rect.setAttribute("opacity", x);
		}
		
		requestAnimationFrame(anim);
	 }
		
	requestAnimationFrame(anim);
</script>
 </svg>
